# xmcd
#
# Track frame offsets:
#	150
#	12340
#	26327
#	53690
#	68840
#	96845
#	109365
#	134925
#	158452
#	181290
#	189785
#	224015
#
# Disc length: 3357 seconds
#
# Revision: 0
# Processed by: cddbd v1.5.1PL0 Copyright (c) Steve Scherf et al.
# Submitted via: dBpowerAMP V4.0
#
DISCID=a40d1b0c
DTITLE=Maria Ana Bobone - Senhora da Lapa
DYEAR=1998
DGENRE=Blues
TTITLE0=Meu Amor me deu um Lenco
TTITLE1=Ternura
TTITLE2=Senhora da Lapa (1998)
TTITLE3=AR
TTITLE4=Teus Olhos
TTITLE5=Espelho Quebrado
TTITLE6=Jose embala a menino
TTITLE7=ABC
TTITLE8=Elegia
TTITLE9=Horsela Mourisca
TTITLE10=Flux
TTITLE11=Senhora da Lapa (1997)
EXTD=
EXTT0=
EXTT1=
EXTT2=
EXTT3=
EXTT4=
EXTT5=
EXTT6=
EXTT7=
EXTT8=
EXTT9=
EXTT10=
EXTT11=
PLAYORDER=
